<svg width="14" height="14" viewBox="0 0 14 14" fill="none" xmlns="http://www.w3.org/2000/svg">
<path d="M9.65723 0C9.81172 0.000402396 9.95928 0.0624665 10.0684 0.171875L13.8301 3.93066C13.8841 3.98491 13.9269 4.04931 13.9561 4.12012C13.9853 4.19095 14.0011 4.26713 14.001 4.34375V9.65625C14.0011 9.73286 13.9853 9.80906 13.9561 9.87988C13.9268 9.95058 13.8841 10.0152 13.8301 10.0693L10.0703 13.8291C10.0162 13.8831 9.95154 13.9259 9.88086 13.9551C9.81006 13.9843 9.7338 13.9991 9.65723 13.999H4.34375C4.26718 13.9991 4.19091 13.9843 4.12012 13.9551C4.04944 13.9259 3.98481 13.8831 3.93066 13.8291L0.171875 10.0693C0.117554 10.0152 0.0743499 9.95071 0.0449219 9.87988C0.0155106 9.80906 0.001011 9.73294 0.000976562 9.65625V4.34375C0.000992788 4.26716 0.0156043 4.19087 0.0449219 4.12012C0.0743073 4.04935 0.117643 3.98479 0.171875 3.93066L3.93066 0.171875C3.98474 0.117629 4.0494 0.0743461 4.12012 0.0449219C4.19091 0.0155256 4.2671 4.88744e-05 4.34375 0H9.65723Z" fill="white"/>
<path d="M4.3435 0C4.26676 1.62566e-05 4.19078 0.0151727 4.11991 0.0446006C4.04904 0.0740286 3.98468 0.11715 3.9305 0.171494L0.1715 3.93037C0.117154 3.98454 0.0740311 4.04891 0.0446022 4.11977C0.0151732 4.19064 1.62572e-05 4.26662 0 4.34335V9.65617C1.62572e-05 9.73291 0.0151732 9.80889 0.0446022 9.87975C0.0740311 9.95062 0.117154 10.015 0.1715 10.0692L3.9305 13.8292C3.98477 13.8833 4.04918 13.9262 4.12005 13.9555C4.19091 13.9847 4.26684 13.9997 4.3435 13.9995H9.6565C9.73316 13.9997 9.80909 13.9847 9.87995 13.9555C9.95082 13.9262 10.0152 13.8833 10.0695 13.8292L13.8297 10.0692C13.8838 10.0149 13.9267 9.95048 13.9559 9.87962C13.9852 9.80875 14.0001 9.73283 14 9.65617V4.34335C14.0001 4.2667 13.9852 4.19077 13.9559 4.11991C13.9267 4.04905 13.8838 3.98464 13.8297 3.93037L10.0683 0.171494C9.9592 0.062023 9.81108 0.000342269 9.6565 0H4.3435ZM4.08333 5.83314H9.91667C10.0714 5.83314 10.2197 5.89459 10.3291 6.00398C10.4385 6.11338 10.5 6.26174 10.5 6.41645V7.58308C10.5 7.73778 10.4385 7.88615 10.3291 7.99554C10.2197 8.10493 10.0714 8.16639 9.91667 8.16639H4.08333C3.92862 8.16639 3.78025 8.10493 3.67085 7.99554C3.56146 7.88615 3.5 7.73778 3.5 7.58308V6.41645C3.5 6.26174 3.56146 6.11338 3.67085 6.00398C3.78025 5.89459 3.92862 5.83314 4.08333 5.83314Z" fill="#F04452"/>
</svg>
