<svg width="23" height="20" viewBox="0 0 23 20" fill="none" xmlns="http://www.w3.org/2000/svg">
<circle fill="none" cx="8.59949" cy="4.5" r="3.5" stroke="currentColor" stroke-width="2" stroke-linecap="round"/>
<mask id="path-2-inside-1_55_2" fill="white">
<path d="M13.958 10.4302C15.5839 10.4304 16.9023 11.7486 16.9023 13.3745C16.9023 17.0332 13.9361 19.9994 10.2773 19.9995H6.625C2.9662 19.9995 0 17.0333 0 13.3745C7.65891e-05 11.7484 1.31825 10.4302 2.94434 10.4302H13.958Z"/>
</mask>
<path d="M13.958 10.4302L13.9583 8.43018H13.958V10.4302ZM16.9023 13.3745H18.9023V13.3744L16.9023 13.3745ZM10.2773 19.9995V21.9995H10.2774L10.2773 19.9995ZM0 13.3745L-2 13.3744V13.3745H0ZM13.958 10.4302L13.9578 12.4302C14.4795 12.4302 14.9023 12.8533 14.9023 13.3746L16.9023 13.3745L18.9023 13.3744C18.9022 10.6438 16.6884 8.43053 13.9583 8.43018L13.958 10.4302ZM16.9023 13.3745H14.9023C14.9023 15.9286 12.8315 17.9994 10.2773 17.9995L10.2773 19.9995L10.2774 21.9995C15.0406 21.9994 18.9023 18.1379 18.9023 13.3745H16.9023ZM10.2773 19.9995V17.9995H6.625V19.9995V21.9995H10.2773V19.9995ZM6.625 19.9995V17.9995C4.07077 17.9995 2 15.9287 2 13.3745H0H-2C-2 18.1379 1.86163 21.9995 6.625 21.9995V19.9995ZM0 13.3745L2 13.3746C2.00002 12.8529 2.42291 12.4302 2.94434 12.4302V10.4302V8.43018C0.213588 8.43018 -1.99987 10.6439 -2 13.3744L0 13.3745ZM2.94434 10.4302V12.4302H13.958V10.4302V8.43018H2.94434V10.4302Z" fill="currentColor" mask="url(#path-2-inside-1_55_2)"/>
<path fill="none" d="M15.2167 7.03906H21.1329" stroke="currentColor" stroke-width="2" stroke-linecap="round"/>
<path fill="none" d="M18.1783 4.08398L18.1783 10.0002" stroke="currentColor" stroke-width="2" stroke-linecap="round"/>
</svg>
