<svg width="24" height="24" viewBox="0 0 24 24" fill="none" xmlns="http://www.w3.org/2000/svg">
<path d="M18.2825 10.6662L18.4801 10.6728C18.9393 10.7032 19.3864 10.8387 19.7865 11.0697C20.1865 11.3006 20.5272 11.62 20.7832 12.0024L20.8881 12.1702C22.0458 14.1766 20.5979 16.6844 18.282 16.6844C18.2685 16.6844 18.2551 16.6837 18.2417 16.6827C17.786 16.6499 17.3425 16.5193 16.9419 16.2997C16.5414 16.0801 16.193 15.7765 15.9204 15.41C15.7341 15.1596 15.7858 14.8054 16.0363 14.6191C16.2867 14.4328 16.6408 14.4851 16.8271 14.7355C17.0028 14.9716 17.2275 15.167 17.4856 15.3084C17.7378 15.4467 18.0164 15.5295 18.3029 15.5529C19.7366 15.538 20.6286 13.9823 19.909 12.7354C19.7439 12.4503 19.5066 12.2129 19.2213 12.0482C18.9714 11.904 18.6919 11.8194 18.4051 11.8004L18.282 11.7965C17.6801 11.7966 17.128 12.2267 16.6754 12.8027C16.4599 13.077 16.2911 13.3545 16.1759 13.5649C16.1187 13.6693 16.0755 13.7555 16.0473 13.8144C16.0332 13.8437 16.0229 13.8663 16.0164 13.8806C16.0132 13.8877 16.011 13.8932 16.0098 13.8961C16.0092 13.8975 16.0087 13.8988 16.0087 13.8988L16.0081 13.8994L16.007 13.9021C16.0061 13.9041 16.0051 13.9067 16.0037 13.9099C16.0009 13.9162 15.997 13.925 15.9921 13.9358C15.9824 13.9573 15.9681 13.9873 15.9502 14.0247C15.9143 14.0994 15.8621 14.2043 15.794 14.3288C15.6583 14.5764 15.4562 14.9096 15.1918 15.2461C14.6844 15.8919 13.8397 16.6844 12.6961 16.6844C10.3803 16.6842 8.93278 14.1771 10.0905 12.1707C10.3548 11.7136 10.7348 11.3336 11.1921 11.0697C11.6494 10.8057 12.1681 10.6664 12.6961 10.6662L12.7375 10.6679C13.1933 10.701 13.6367 10.832 14.0372 11.052C14.4378 11.272 14.7864 11.5759 15.0588 11.9428C15.2448 12.1934 15.1924 12.5477 14.9418 12.7337C14.6912 12.9197 14.337 12.8673 14.1509 12.6167C13.9754 12.3803 13.7511 12.1845 13.4931 12.0427C13.2414 11.9044 12.9633 11.8209 12.6773 11.7971C12.3543 11.8005 12.0373 11.8866 11.7573 12.0482C11.4719 12.2129 11.2341 12.4497 11.0691 12.7348L11.0696 12.7354C10.3466 13.9883 11.2504 15.5538 12.6961 15.554C13.298 15.554 13.8506 15.124 14.3033 14.5479C14.5187 14.2736 14.6875 13.9961 14.8027 13.7857C14.86 13.6811 14.9031 13.5945 14.9313 13.5357C14.9453 13.5065 14.9558 13.4842 14.9622 13.47C14.9655 13.4628 14.9676 13.4574 14.9689 13.4545C14.9695 13.4531 14.97 13.4518 14.97 13.4518L14.9716 13.4485C14.9725 13.4465 14.9736 13.4438 14.9749 13.4407C14.9777 13.4344 14.9817 13.4255 14.9865 13.4148C14.9962 13.3933 15.01 13.3633 15.0279 13.3259C15.0638 13.2511 15.1165 13.1464 15.1847 13.0218C15.3203 12.7741 15.5224 12.4405 15.7868 12.104C16.2942 11.4582 17.139 10.6663 18.2825 10.6662Z" fill="white"/>
<path d="M7.47363 1.81366C9.63619 1.81374 11.5827 2.73408 12.9473 4.20233C8.70599 5.25952 5.56349 9.09273 5.56348 13.6613C5.56348 14.7452 5.74286 15.7869 6.06934 16.7609H1.28516C0.829584 16.7609 0.693561 16.1409 1.10742 15.9504L2.84082 15.1516C1.11046 13.7828 3.82244e-06 11.6648 0 9.28729C3.1524e-05 5.15991 3.34619 1.81366 7.47363 1.81366Z" fill="currentColor"/>
<path d="M15.4893 5.16394C20.1896 5.16394 24 8.97516 24 13.6757C23.9999 16.3834 22.7353 18.7957 20.7646 20.3544L22.7393 21.2635C23.2105 21.4806 23.0559 22.1863 22.5371 22.1864H15.3408C15.3245 22.1864 15.3079 22.1851 15.292 22.1835C10.6831 22.0784 6.97876 18.3099 6.97852 13.6757C6.97855 8.97523 10.789 5.16406 15.4893 5.16394ZM18.2822 10.6659C17.1389 10.6661 16.2945 11.4587 15.7871 12.1044C15.5228 12.4408 15.3202 12.7737 15.1846 13.0214C15.1164 13.1459 15.0642 13.2513 15.0283 13.326C15.0104 13.3634 14.996 13.3934 14.9863 13.4149C14.9816 13.4255 14.9774 13.434 14.9746 13.4403C14.9733 13.4432 14.9725 13.4462 14.9717 13.4481L14.9697 13.452C14.9695 13.4525 14.9692 13.4539 14.9688 13.455C14.9675 13.4579 14.965 13.4629 14.9619 13.4696C14.9555 13.4839 14.9456 13.5068 14.9316 13.536C14.9034 13.5949 14.8599 13.6815 14.8027 13.786C14.6875 13.9963 14.519 14.2737 14.3037 14.5477C13.8511 15.1238 13.2981 15.5535 12.6963 15.5536C11.2956 15.5534 10.4036 14.0844 11.0068 12.8534L11.0693 12.7352C11.2344 12.4501 11.4724 12.2134 11.7578 12.0487C12.0378 11.8872 12.3547 11.8002 12.6777 11.7968C12.9636 11.8206 13.2416 11.9047 13.4932 12.0428C13.7512 12.1846 13.9759 12.3807 14.1514 12.6171C14.3375 12.8673 14.691 12.9191 14.9414 12.7333C15.1919 12.5473 15.2444 12.1938 15.0586 11.9432C14.7862 11.5763 14.4376 11.2717 14.0371 11.0516C13.6366 10.8317 13.193 10.7009 12.7373 10.6678L12.6963 10.6659C12.1684 10.6661 11.6496 10.8054 11.1924 11.0692C10.7351 11.3332 10.3551 11.7137 10.0908 12.1708C8.93307 14.1771 10.3805 16.6843 12.6963 16.6844C13.8397 16.6844 14.684 15.8917 15.1914 15.246C15.4557 14.9096 15.6583 14.5766 15.7939 14.329C15.8621 14.2045 15.9143 14.0991 15.9502 14.0243C15.968 13.9871 15.9825 13.9569 15.9922 13.9354C15.997 13.9249 16.0011 13.9163 16.0039 13.91C16.0052 13.907 16.006 13.9042 16.0068 13.9022L16.0078 13.8993H16.0088C16.0088 13.8993 16.0092 13.8977 16.0098 13.8964C16.011 13.8935 16.0134 13.8879 16.0166 13.8807C16.0231 13.8665 16.0328 13.8436 16.0469 13.8143C16.0751 13.7555 16.1187 13.6696 16.1758 13.5653C16.291 13.3549 16.4603 13.0769 16.6758 12.8026C17.1283 12.2267 17.6804 11.7968 18.2822 11.7968L18.4053 11.8007C18.6921 11.8196 18.9718 11.9045 19.2217 12.0487C19.5068 12.2134 19.7442 12.4503 19.9092 12.7352C20.6288 13.9822 19.7364 15.5377 18.3027 15.5526C18.0162 15.5292 17.7375 15.4467 17.4854 15.3085C17.2274 15.167 17.0028 14.9713 16.8271 14.7352C16.6408 14.485 16.2865 14.4328 16.0361 14.619C15.7858 14.8053 15.7338 15.1596 15.9199 15.41C16.1926 15.7765 16.5418 16.0801 16.9424 16.2997C17.3429 16.5192 17.7866 16.6497 18.2422 16.6825C18.2554 16.6834 18.2689 16.6844 18.2822 16.6844C20.598 16.6843 22.0454 14.1761 20.8877 12.1698L20.7832 12.0028C20.5272 11.6204 20.1862 11.3002 19.7861 11.0692C19.3863 10.8385 18.9393 10.7032 18.4805 10.6727L18.2822 10.6659Z" fill="currentColor"/>
</svg>
