<svg width="24" height="24" viewBox="0 0 24 24" fill="none" xmlns="http://www.w3.org/2000/svg">
<circle cx="10.8433" cy="6.08459" r="5" fill="currentColor"/>
<path d="M17.5947 10.9478C20.5064 10.9479 22.8671 13.3085 22.8672 16.2202C22.8672 19.132 20.5065 21.4925 17.5947 21.4927C14.6828 21.4927 12.3223 19.1321 12.3223 16.2202C12.3224 13.3084 14.6829 10.9478 17.5947 10.9478ZM17.5908 13.5679C17.1818 13.568 16.8506 13.9001 16.8506 14.3091V15.4839H15.6826C15.2737 15.4839 14.9416 15.8152 14.9414 16.2241C14.9417 16.633 15.2737 16.9653 15.6826 16.9653H16.8506V18.1333C16.8509 18.542 17.182 18.8734 17.5908 18.8735C17.9997 18.8735 18.3317 18.5421 18.332 18.1333V16.9653H19.5068C19.9157 16.9652 20.2468 16.6329 20.2471 16.2241C20.2469 15.8152 19.9157 15.484 19.5068 15.4839H18.332V14.3091C18.332 13.9 17.9999 13.5679 17.5908 13.5679Z" fill="currentColor"/>
<path d="M12.134 12.972C11.4975 13.9452 11.1253 15.1071 11.1252 16.3568C11.1252 19.3856 13.2996 21.9051 16.1721 22.4437C15.3964 22.7466 14.5532 22.9153 13.6702 22.9153H8.01685C4.21504 22.9153 1.13306 19.8334 1.13306 16.0316C1.13308 14.3419 2.50295 12.972 4.19263 12.972H12.134Z" fill="currentColor"/>
</svg>
