<svg width="24" height="24" viewBox="0 0 24 24" fill="none" xmlns="http://www.w3.org/2000/svg">
<path d="M19.6571 17.329C20.3986 17.3292 21 17.9303 21 18.6719C20.9999 19.4134 20.3985 20.0146 19.6571 20.0148H4.3429C3.60132 20.0148 3.00013 19.4135 3 18.6719C3 17.9302 3.60124 17.329 4.3429 17.329H19.6571ZM19.6571 10.6427C20.3987 10.6428 21 11.244 21 11.9856C20.9999 12.7271 20.3986 13.3284 19.6571 13.3285H4.3429C3.60134 13.3284 3.00009 12.7271 3 11.9856C3 11.244 3.60128 10.6427 4.3429 10.6427H19.6571ZM19.6571 3.98523C20.3987 3.98533 21 4.58653 21 5.32813C21 6.06973 20.3987 6.67093 19.6571 6.67103H4.3429C3.60128 6.67099 3 6.06977 3 5.32813C3 4.5865 3.60128 3.98528 4.3429 3.98523H19.6571Z" fill="currentColor"/>
</svg>
