<svg width="24" height="24" viewBox="0 0 24 24" fill="none" xmlns="http://www.w3.org/2000/svg">
<g clip-path="url(#clip0_347_3459)">
<path d="M6.59712 18.0897L2.25635 21.5V3.47436C2.25635 3.21594 2.359 2.96811 2.54173 2.78538C2.72446 2.60266 2.97229 2.5 3.23071 2.5H20.7692C21.0276 2.5 21.2754 2.60266 21.4581 2.78538C21.6409 2.96811 21.7435 3.21594 21.7435 3.47436V17.1154C21.7435 17.3738 21.6409 17.6216 21.4581 17.8044C21.2754 17.9871 21.0276 18.0897 20.7692 18.0897H6.59712ZM11.0256 9.32051H8.1025V11.2692H11.0256V14.1923H12.9743V11.2692H15.8974V9.32051H12.9743V6.39744H11.0256V9.32051Z" fill="black"/>
</g>
<defs>
<clipPath id="clip0_347_3459">
<rect width="24" height="24" fill="white"/>
</clipPath>
</defs>
</svg>
