<svg width="24" height="24" viewBox="0 0 24 24" fill="none" xmlns="http://www.w3.org/2000/svg">
<g clip-path="url(#clip0_289_1465)">
<path d="M4.51991 5.93358L1.39291 2.80758L2.80791 1.39258L22.6069 21.1926L21.1919 22.6066L17.8819 19.2966C16.1231 20.4121 14.0826 21.0029 11.9999 20.9996C6.60791 20.9996 2.12191 17.1196 1.18091 11.9996C1.61094 9.6703 2.78254 7.54247 4.52091 5.93358H4.51991ZM14.7569 16.1716L13.2929 14.7076C12.733 14.9755 12.1037 15.0631 11.4918 14.9584C10.88 14.8536 10.3157 14.5616 9.87678 14.1227C9.43785 13.6838 9.14588 13.1195 9.04112 12.5076C8.93637 11.8958 9.02399 11.2665 9.29191 10.7066L7.82791 9.24258C7.19162 10.2041 6.90718 11.3559 7.02274 12.5031C7.1383 13.6502 7.64676 14.7222 8.46203 15.5375C9.27729 16.3527 10.3493 16.8612 11.4964 16.9767C12.6436 17.0923 13.7954 16.8079 14.7569 16.1716ZM7.97391 3.75958C9.22091 3.26958 10.5799 2.99958 11.9999 2.99958C17.3919 2.99958 21.8779 6.87958 22.8189 11.9996C22.5125 13.6653 21.8238 15.2372 20.8069 16.5916L16.9469 12.7316C17.0616 11.9592 16.9937 11.1707 16.7488 10.4292C16.5039 9.68778 16.0888 9.01399 15.5366 8.46185C14.9845 7.9097 14.3107 7.49455 13.5693 7.24965C12.8278 7.00475 12.0393 6.93692 11.2669 7.05158L7.97391 3.76058V3.75958Z" fill="black"/>
</g>
<defs>
<clipPath id="clip0_289_1465">
<rect width="24" height="24" fill="white"/>
</clipPath>
</defs>
</svg>
