<svg width="24" height="24" viewBox="0 0 24 24" fill="none" xmlns="http://www.w3.org/2000/svg">
<g clip-path="url(#clip0_289_1466)">
<path d="M17.8819 19.2966C16.1231 20.4121 14.0826 21.0029 11.9999 20.9996C6.60791 20.9996 2.12191 17.1196 1.18091 11.9996C1.61094 9.6703 2.78254 7.54247 4.52091 5.93358L1.39191 2.80758L2.80691 1.39258L22.6059 21.1926L21.1909 22.6066L17.8809 19.2966H17.8819ZM5.93491 7.34958C4.57591 8.58517 3.62923 10.2084 3.22291 11.9996C3.5352 13.366 4.16217 14.6407 5.05391 15.7222C5.94565 16.8036 7.07753 17.662 8.35946 18.2289C9.64139 18.7958 11.038 19.0556 12.438 18.9877C13.838 18.9198 15.2029 18.5259 16.4239 17.8376L14.3959 15.8096C13.5326 16.3534 12.5101 16.5877 11.4961 16.474C10.4822 16.3604 9.53695 15.9055 8.81548 15.184C8.09401 14.4625 7.63914 13.5173 7.52547 12.5033C7.4118 11.4894 7.64609 10.4669 8.18991 9.60358L5.93491 7.34958ZM12.9139 14.3276L9.67191 11.0856C9.49397 11.5385 9.4521 12.0335 9.55141 12.5099C9.65073 12.9863 9.88693 13.4234 10.231 13.7675C10.5751 14.1116 11.0122 14.3478 11.4886 14.4471C11.965 14.5464 12.46 14.5045 12.9129 14.3266L12.9139 14.3276ZM20.8069 16.5916L19.3759 15.1616C20.0444 14.2089 20.5203 13.1348 20.7769 11.9996C20.5051 10.8093 19.9942 9.68672 19.2751 8.70007C18.5559 7.71342 17.6437 6.88331 16.5938 6.26018C15.5439 5.63706 14.3782 5.23395 13.1676 5.07534C11.9571 4.91674 10.7269 5.00596 9.55191 5.33758L7.97391 3.75958C9.22091 3.26958 10.5799 2.99958 11.9999 2.99958C17.3919 2.99958 21.8779 6.87958 22.8189 11.9996C22.5125 13.6653 21.8238 15.2372 20.8069 16.5916ZM11.7229 7.50758C12.3594 7.46824 12.997 7.56464 13.5935 7.7904C14.1899 8.01615 14.7315 8.36609 15.1825 8.81703C15.6334 9.26797 15.9833 9.8096 16.2091 10.406C16.4348 11.0025 16.5312 11.6401 16.4919 12.2766L11.7219 7.50758H11.7229Z" fill="black"/>
</g>
<defs>
<clipPath id="clip0_289_1466">
<rect width="24" height="24" fill="white"/>
</clipPath>
</defs>
</svg>
