<svg width="24" height="24" viewBox="0 0 24 24" fill="none" xmlns="http://www.w3.org/2000/svg">
<g clip-path="url(#clip0_1163_3859)">
<path d="M18.8486 5.53418C19.6192 5.88989 20.3284 6.38803 20.9375 7.0127C22.2579 8.36699 23 10.2039 23 12.1191C22.9999 17.9866 16.8391 20.6946 12.4385 22.5V19.3408L14.1992 17.5352V19.7734C19.0729 17.5042 21.2402 15.3777 21.2402 12.1191C21.2402 10.8493 20.8045 9.62574 20.0195 8.65723L18.8486 5.53418ZM11.5615 2.5C13.4289 2.50001 15.2196 3.26097 16.54 4.61523C17.8605 5.96953 18.6025 7.80641 18.6025 9.72168C18.6025 11.6369 17.8604 13.4739 16.54 14.8281C15.2196 16.1823 13.4288 16.9433 11.5615 16.9434V20.1025C7.16094 18.2972 1.00011 15.5891 1 9.72168C1 7.80641 1.74206 5.96953 3.0625 4.61523C4.38294 3.26098 6.17366 2.5 8.04102 2.5H11.5615ZM8.04102 4.30566C6.64048 4.30566 5.29697 4.87588 4.30664 5.8916C3.31636 6.90732 2.75977 8.28527 2.75977 9.72168C2.75983 12.9802 4.92709 15.1067 9.80078 17.376V15.1377H11.5615C12.2549 15.1377 12.9414 14.9977 13.582 14.7256C14.2227 14.4534 14.8055 14.0547 15.2959 13.5518C15.7863 13.0488 16.175 12.4511 16.4404 11.7939C16.7057 11.137 16.8418 10.4328 16.8418 9.72168C16.8418 9.01042 16.7058 8.30555 16.4404 7.64844C16.1751 6.99149 15.7861 6.39444 15.2959 5.8916C14.8055 5.38867 14.2227 4.98996 13.582 4.71777C12.9414 4.44565 12.2549 4.30567 11.5615 4.30566H8.04102Z" fill="black"/>
</g>
<defs>
<clipPath id="clip0_1163_3859">
<rect width="24" height="24" fill="white"/>
</clipPath>
</defs>
</svg>
