<svg width="24" height="24" viewBox="0 0 24 24" fill="none" xmlns="http://www.w3.org/2000/svg">
<g clip-path="url(#clip0_347_3457)">
<path d="M2.19775 17.1765H8.78599V19.0588H2.19775V17.1765ZM2.19775 10.5882H10.6683V12.4706H2.19775V10.5882ZM2.19775 4H21.0213V5.88235H2.19775V4ZM19.7733 12.4941L20.8613 12.1261L21.8025 13.7562L20.9403 14.5139C21.0489 15.0284 21.0489 15.5599 20.9403 16.0744L21.8025 16.832L20.8613 18.4621L19.7733 18.0941C19.3874 18.4424 18.9281 18.7106 18.4227 18.8753L18.1978 20H16.3154L16.0895 18.8744C15.59 18.7111 15.1302 18.445 14.7399 18.0932L13.6519 18.4621L12.7107 16.832L13.5728 16.0744C13.4643 15.5599 13.4643 15.0284 13.5728 14.5139L12.7107 13.7562L13.6519 12.1261L14.7399 12.4941C15.1258 12.1459 15.585 11.8776 16.0905 11.7129L16.3154 10.5882H18.1978L18.4236 11.7139C18.9281 11.8776 19.3874 12.1468 19.7733 12.4951V12.4941ZM17.2566 17.1765C17.7558 17.1765 18.2346 16.9782 18.5876 16.6251C18.9406 16.2721 19.1389 15.7933 19.1389 15.2941C19.1389 14.7949 18.9406 14.3161 18.5876 13.9631C18.2346 13.6101 17.7558 13.4118 17.2566 13.4118C16.7573 13.4118 16.2786 13.6101 15.9256 13.9631C15.5725 14.3161 15.3742 14.7949 15.3742 15.2941C15.3742 15.7933 15.5725 16.2721 15.9256 16.6251C16.2786 16.9782 16.7573 17.1765 17.2566 17.1765Z" fill="black"/>
</g>
<defs>
<clipPath id="clip0_347_3457">
<rect width="24" height="24" fill="white"/>
</clipPath>
</defs>
</svg>
