<svg width="24" height="24" viewBox="0 0 24 24" fill="none" xmlns="http://www.w3.org/2000/svg">
<g clip-path="url(#clip0_347_3458)">
<path d="M2.19775 17.1765H8.78599V19.0588H2.19775V17.1765ZM2.19775 10.5882H10.6683V12.4706H2.19775V10.5882ZM2.19775 4H21.0213V5.88235H2.19775V4ZM19.7733 12.4941L20.8613 12.1261L21.8025 13.7562L20.9403 14.5139C21.0489 15.0284 21.0489 15.5599 20.9403 16.0744L21.8025 16.832L20.8613 18.4621L19.7733 18.0941C19.3874 18.4424 18.9281 18.7106 18.4227 18.8753L18.1978 20H16.3154L16.0895 18.8744C15.59 18.7111 15.1302 18.445 14.7399 18.0932L13.6519 18.4621L12.7107 16.832L13.5728 16.0744C13.4643 15.5599 13.4643 15.0284 13.5728 14.5139L12.7107 13.7562L13.6519 12.1261L14.7399 12.4941C15.1258 12.1459 15.585 11.8776 16.0905 11.7129L16.3154 10.5882H18.1978L18.4236 11.7139C18.9281 11.8776 19.3874 12.1468 19.7733 12.4951V12.4941ZM17.2566 16.2353C17.5062 16.2353 17.7456 16.1361 17.9221 15.9596C18.0986 15.7831 18.1978 15.5437 18.1978 15.2941C18.1978 15.0445 18.0986 14.8051 17.9221 14.6286C17.7456 14.4521 17.5062 14.3529 17.2566 14.3529C17.007 14.3529 16.7676 14.4521 16.5911 14.6286C16.4146 14.8051 16.3154 15.0445 16.3154 15.2941C16.3154 15.5437 16.4146 15.7831 16.5911 15.9596C16.7676 16.1361 17.007 16.2353 17.2566 16.2353Z" fill="black"/>
</g>
<defs>
<clipPath id="clip0_347_3458">
<rect width="24" height="24" fill="white"/>
</clipPath>
</defs>
</svg>
