<svg width="24" height="24" viewBox="0 0 24 24" fill="none" xmlns="http://www.w3.org/2000/svg">
<g clip-path="url(#clip0_120_1936)">
<path d="M11.9998 4C11.2665 4 10.6665 4.6 10.6665 5.33333C10.6665 6.06667 11.2665 6.66667 11.9998 6.66667C12.7332 6.66667 13.3332 6.06667 13.3332 5.33333C13.3332 4.6 12.7332 4 11.9998 4ZM11.9998 17.3333C11.2665 17.3333 10.6665 17.9333 10.6665 18.6667C10.6665 19.4 11.2665 20 11.9998 20C12.7332 20 13.3332 19.4 13.3332 18.6667C13.3332 17.9333 12.7332 17.3333 11.9998 17.3333ZM11.9998 10.6667C11.2665 10.6667 10.6665 11.2667 10.6665 12C10.6665 12.7333 11.2665 13.3333 11.9998 13.3333C12.7332 13.3333 13.3332 12.7333 13.3332 12C13.3332 11.2667 12.7332 10.6667 11.9998 10.6667Z" fill="black"/>
</g>
<defs>
<clipPath id="clip0_120_1936">
<rect width="24" height="24" fill="white"/>
</clipPath>
</defs>
</svg>
