<svg width="20" height="20" viewBox="0 0 20 20" fill="none" xmlns="http://www.w3.org/2000/svg">
<path fill="none" d="M5.10756 4.46311C5.37655 4.55889 5.66284 4.59466 5.94679 4.56798C6.23073 4.54129 6.50561 4.45277 6.75255 4.30849C6.99949 4.16422 7.21265 3.96761 7.37739 3.73215C7.54214 3.4967 7.65457 3.22797 7.70698 2.94442L8.02326 1.22476C9.32377 0.925079 10.6743 0.925079 11.9748 1.22476L12.293 2.94442C12.3454 3.22797 12.4579 3.4967 12.6226 3.73215C12.7874 3.96761 13.0005 4.16422 13.2475 4.30849C13.4944 4.45277 13.7693 4.54129 14.0532 4.56798C14.3372 4.59466 14.6235 4.55889 14.8924 4.46311L16.5223 3.88323C17.4295 4.8718 18.1054 6.05406 18.5 7.34253L17.1855 8.4823C16.969 8.67003 16.7952 8.90291 16.676 9.16496C16.5569 9.42702 16.4952 9.71205 16.4952 10.0005C16.4952 10.2889 16.5569 10.574 16.676 10.836C16.7952 11.0981 16.969 11.331 17.1855 11.5187L18.5 12.6575C18.1054 13.9459 17.4295 15.1282 16.5223 16.1168L14.8915 15.5369C14.6225 15.4411 14.3362 15.4053 14.0522 15.432C13.7683 15.4587 13.4934 15.5472 13.2465 15.6915C12.9995 15.8358 12.7864 16.0324 12.6216 16.2678C12.4569 16.5033 12.3444 16.772 12.292 17.0556L11.9767 18.7752C10.6762 19.0749 9.32574 19.0749 8.02523 18.7752L7.70698 17.0556C7.65457 16.772 7.54214 16.5033 7.37739 16.2678C7.21265 16.0324 6.99949 15.8358 6.75255 15.6915C6.50561 15.5472 6.23073 15.4587 5.94679 15.432C5.66284 15.4053 5.37655 15.4411 5.10756 15.5369L3.47773 16.1168C2.5705 15.1282 1.89459 13.9459 1.5 12.6575L2.81453 11.5177C3.03087 11.33 3.20451 11.0972 3.32356 10.8352C3.4426 10.5732 3.50424 10.2883 3.50424 10C3.50424 9.71168 3.4426 9.42678 3.32356 9.16481C3.20451 8.90285 3.03087 8.67003 2.81453 8.4823L1.5 7.34253C1.8943 6.05415 2.56987 4.8719 3.47674 3.88323L5.10756 4.46311ZM10 7.0006C10.7864 7.0006 11.5406 7.31661 12.0967 7.8791C12.6527 8.4416 12.9651 9.20451 12.9651 10C12.9651 10.7955 12.6527 11.5584 12.0967 12.1209C11.5406 12.6834 10.7864 12.9994 10 12.9994C9.2136 12.9994 8.45941 12.6834 7.90335 12.1209C7.34728 11.5584 7.03488 10.7955 7.03488 10C7.03488 9.20451 7.34728 8.4416 7.90335 7.8791C8.45941 7.31661 9.2136 7.0006 10 7.0006Z" stroke="currentColor" stroke-width="2" stroke-linecap="round" stroke-linejoin="round"/>
</svg>
