<svg width="20" height="20" viewBox="0 0 20 20" fill="none" xmlns="http://www.w3.org/2000/svg">
<path d="M9.99956 15.404L5.93923 17.85C5.75986 17.9641 5.57233 18.013 5.37665 17.9967C5.18097 17.9804 5.00975 17.9152 4.863 17.801C4.71624 17.6869 4.60209 17.5444 4.52056 17.3735C4.43902 17.2026 4.42272 17.0108 4.47164 16.7982L5.54787 12.1753L1.95228 9.06889C1.78921 8.92213 1.68746 8.75483 1.64702 8.56697C1.60658 8.37912 1.61864 8.19584 1.68322 8.01712C1.74779 7.8384 1.84563 7.69164 1.97674 7.57684C2.10784 7.46204 2.28721 7.38866 2.51485 7.3567L7.26006 6.94089L9.09455 2.58704C9.17608 2.39136 9.30262 2.2446 9.47416 2.14676C9.64571 2.04892 9.82084 2 9.99956 2C10.1783 2 10.3534 2.04892 10.525 2.14676C10.6965 2.2446 10.823 2.39136 10.9046 2.58704L12.7391 6.94089L17.4843 7.3567C17.7126 7.38932 17.8919 7.46269 18.0224 7.57684C18.1528 7.69099 18.2507 7.83775 18.3159 8.01712C18.3811 8.19649 18.3935 8.3801 18.3531 8.56795C18.3126 8.7558 18.2106 8.92278 18.0468 9.06889L14.4512 12.1753L15.5275 16.7982C15.5764 17.0102 15.5601 17.2019 15.4786 17.3735C15.397 17.545 15.2829 17.6876 15.1361 17.801C14.9894 17.9145 14.8181 17.9798 14.6225 17.9967C14.4268 18.0137 14.2393 17.9648 14.0599 17.85L9.99956 15.404Z" fill="#FFED66"/>
</svg>
